<?xml version="1.0" encoding="UTF-8" standalone="no"?>
<svg width="21px" height="34px" viewBox="0 0 21 34" version="1.1" xmlns="http://www.w3.org/2000/svg" xmlns:xlink="http://www.w3.org/1999/xlink" xmlns:sketch="http://www.bohemiancoding.com/sketch/ns">
    <!-- Generator: Sketch 3.1.1 (8761) - http://www.bohemiancoding.com/sketch -->
    <title>icon-help</title>
    <desc>Created with Sketch.</desc>
    <defs></defs>
    <g id="Page-1" stroke="none" stroke-width="1" fill="none" fill-rule="evenodd" sketch:type="MSPage">
        <g id="outlines" sketch:type="MSArtboardGroup" transform="translate(-977.000000, -32.000000)">
            <g id="icon-help" sketch:type="MSLayerGroup" transform="translate(977.000000, 32.000000)">
                <path d="M19.2642711,14.7938 L18.5698436,16.0062 C18.3780359,16.3415 17.9538191,16.4556 17.6213059,16.2624 L15.6927295,15.1396 C14.7140907,16.2533 13.3903382,17.0513 11.8880786,17.3593 L11.8880786,18.9 C11.8880786,19.2871 11.5779663,19.6 11.1943511,19.6 L9.80549602,19.6 C9.42188081,19.6 9.11176852,19.2871 9.11176852,18.9 L9.11176852,17.3593 C7.60950895,17.0513 6.28575646,16.2533 5.30711765,15.1396 L3.37854118,16.2624 C3.04602799,16.4556 2.62181117,16.3415 2.43000357,16.0062 L1.73557603,14.7938 C1.54376843,14.4592 1.65787295,14.0308 1.98968611,13.8383 L3.92596289,12.7099 C3.69565375,12.0141 3.55774828,11.2742 3.55774828,10.5 C3.55774828,9.7258 3.69565375,8.9866 3.92596289,8.2901 L1.98968611,7.1624 C1.65787295,6.9692 1.54376843,6.5415 1.73557603,6.2062 L2.43000357,4.9938 C2.62181117,4.6592 3.04602799,4.5444 3.37854118,4.7376 L5.30711765,5.8604 C6.28575646,4.7467 7.60950895,3.9487 9.11176852,3.6407 L9.11176852,2.1 C9.11176852,1.7129 9.42188081,1.4 9.80549602,1.4 L11.1943511,1.4 C11.5779663,1.4 11.8880786,1.7129 11.8880786,2.1 L11.8880786,3.6407 C13.3903382,3.9487 14.7140907,4.7467 15.6927295,5.8604 L17.6213059,4.7376 C17.9538191,4.5444 18.3780359,4.6592 18.5698436,4.9938 L19.2642711,6.2062 C19.4560787,6.5415 19.3419742,6.9692 19.010161,7.1624 L17.0738842,8.2901 C17.3041934,8.9866 17.4420988,9.7258 17.4420988,10.5 C17.4420988,11.2742 17.3041934,12.0141 17.0738842,12.7099 L19.010161,13.8383 C19.3419742,14.0308 19.4560787,14.4592 19.2642711,14.7938 L19.2642711,14.7938 Z M20.3059124,12.9752 L18.6797479,12.0288 C18.7707515,11.5318 18.8309539,11.0243 18.8309539,10.5 C18.8309539,9.9764 18.7707515,9.4682 18.6797479,8.9712 L20.3059124,8.0248 C20.9702387,7.6384 21.1970477,6.7816 20.8134325,6.1124 L19.4252775,3.6876 C19.0423623,3.0184 18.1925286,2.7881 17.5289023,3.1752 L15.8859371,4.1307 C15.1187067,3.4727 14.2464721,2.9344 13.2769337,2.5879 L13.2769337,1.4 C13.2769337,0.6272 12.655309,0 11.8880786,0 L9.11176852,0 C8.34453809,0 7.72291344,0.6272 7.72291344,1.4 L7.72291344,2.5879 C6.753375,2.9344 5.88114041,3.4727 5.11390999,4.1307 L3.47094484,3.1752 C2.80731853,2.7881 1.95748483,3.0184 1.57456965,3.6876 L0.186414603,6.1124 C-0.197200609,6.7816 0.0303084125,7.6384 0.693934727,8.0248 L2.32009921,8.9712 C2.2290956,9.4682 2.16889321,9.9764 2.16889321,10.5 C2.16889321,11.0243 2.2290956,11.5318 2.32009921,12.0288 L0.693934727,12.9752 C0.0303084125,13.3616 -0.197200609,14.2184 0.186414603,14.8876 L1.57456965,17.3124 C1.95748483,17.9816 2.80731853,18.2119 3.47094484,17.8248 L5.11390999,16.8693 C5.88114041,17.5273 6.753375,18.0663 7.72291344,18.4121 L7.72291344,19.6 C7.72291344,20.3728 8.34453809,21 9.11176852,21 L11.8880786,21 C12.655309,21 13.2769337,20.3728 13.2769337,19.6 L13.2769337,18.4121 C14.2464721,18.0663 15.1187067,17.5273 15.8859371,16.8693 L17.5289023,17.8248 C18.1925286,18.2119 19.0423623,17.9816 19.4252775,17.3124 L20.8134325,14.8876 C21.1970477,14.2184 20.9702387,13.3616 20.3059124,12.9752 L20.3059124,12.9752 Z M10.4999236,12.6 C9.34977795,12.6 8.41734098,11.6599 8.41734098,10.5 C8.41734098,9.3408 9.34977795,8.4 10.4999236,8.4 C11.6500692,8.4 12.5825061,9.3408 12.5825061,10.5 C12.5825061,11.6599 11.6500692,12.6 10.4999236,12.6 L10.4999236,12.6 Z M10.4999236,7 C8.58254753,7 7.02918594,8.5666 7.02918594,10.5 C7.02918594,12.4334 8.58254753,14 10.4999236,14 C12.4172996,14 13.9713612,12.4334 13.9713612,10.5 C13.9713612,8.5666 12.4172996,7 10.4999236,7 L10.4999236,7 Z" id="Fill-172" fill="#CFD6DB" sketch:type="MSShapeGroup"></path>
                <path d="M4.80771391,34 L4.80771391,26.008 L3.53571391,26.008 L3.53571391,29.476 L2.19171391,29.476 L2.19171391,26.008 L0.919713911,26.008 L0.919713911,34 L2.19171391,34 L2.19171391,30.64 L3.53571391,30.64 L3.53571391,34 L4.80771391,34 Z M9.74485696,34 L9.74485696,32.836 L7.82485696,32.836 L7.82485696,30.4 L9.15685696,30.4 L9.15685696,29.344 L7.82485696,29.344 L7.82485696,27.136 L9.74485696,27.136 L9.74485696,26.008 L6.55285696,26.008 L6.55285696,34 L9.74485696,34 Z M14.394,34 L14.394,32.848 L12.558,32.848 L12.558,26.008 L11.286,26.008 L11.286,34 L14.394,34 Z M19.427143,29.236 L19.427143,27.628 C19.427143,26.512 18.779143,26.008 17.867143,26.008 L15.827143,26.008 L15.827143,34 L17.099143,34 L17.099143,30.844 L17.867143,30.844 C18.779143,30.844 19.427143,30.34 19.427143,29.236 L19.427143,29.236 Z M18.191143,29.296 C18.191143,29.644 18.059143,29.824 17.759143,29.824 L17.099143,29.824 L17.099143,27.1 L17.759143,27.1 C18.059143,27.1 18.191143,27.28 18.191143,27.628 L18.191143,29.296 Z" id="HELP" fill="#FFFFFF" sketch:type="MSShapeGroup"></path>
            </g>
        </g>
    </g>
</svg>