<?xml version="1.0" encoding="UTF-8" standalone="no"?>
<svg width="24px" height="12px" viewBox="0 0 24 12" version="1.1" xmlns="http://www.w3.org/2000/svg" xmlns:xlink="http://www.w3.org/1999/xlink" xmlns:sketch="http://www.bohemiancoding.com/sketch/ns">
    <!-- Generator: Sketch 3.1.1 (8761) - http://www.bohemiancoding.com/sketch -->
    <title>TIME</title>
    <desc>Created with Sketch.</desc>
    <defs></defs>
    <g id="Page-1" stroke="none" stroke-width="1" fill="none" fill-rule="evenodd" sketch:type="MSPage">
        <g id="outlines" sketch:type="MSArtboardGroup" transform="translate(-891.000000, -31.000000)" fill="#9DC9D0">
            <path d="M895.626,32.542 L895.626,31.012 L891.126,31.012 L891.126,32.542 L892.62,32.542 L892.62,43 L894.186,43 L894.186,32.542 L895.626,32.542 Z M899.215714,43 L899.215714,31.012 L897.631714,31.012 L897.631714,43 L899.215714,43 Z M908.115429,43 L908.115429,31.012 L906.009429,31.012 L905.181429,37.078 L904.911429,39.472 L904.641429,37.078 L903.795429,31.012 L901.653429,31.012 L901.653429,43 L903.039429,43 L903.039429,33.892 L903.291429,36.304 L904.191429,43 L905.397429,43 L906.351429,36.304 L906.621429,33.892 L906.621429,43 L908.115429,43 Z M914.369143,43 L914.369143,41.506 L912.101143,41.506 L912.101143,37.528 L913.685143,37.528 L913.685143,36.106 L912.101143,36.106 L912.101143,32.488 L914.369143,32.488 L914.369143,31.012 L910.535143,31.012 L910.535143,43 L914.369143,43 Z" id="TIME" sketch:type="MSShapeGroup"></path>
        </g>
    </g>
</svg>