<?xml version="1.0" encoding="UTF-8" standalone="no"?>
<svg width="143px" height="25px" viewBox="0 0 143 25" version="1.1" xmlns="http://www.w3.org/2000/svg" xmlns:xlink="http://www.w3.org/1999/xlink" xmlns:sketch="http://www.bohemiancoding.com/sketch/ns">
    <!-- Generator: Sketch 3.1.1 (8761) - http://www.bohemiancoding.com/sketch -->
    <title>winter-game-wide</title>
    <desc>Created with Sketch.</desc>
    <defs></defs>
    <g id="Page-1" stroke="none" stroke-width="1" fill="none" fill-rule="evenodd" sketch:type="MSPage">
        <g id="outlines" sketch:type="MSArtboardGroup" transform="translate(-39.000000, -36.000000)">
            <g id="winter-game-wide" sketch:type="MSLayerGroup" transform="translate(39.000000, 36.000000)">
                <path d="M14.3000087,0.856 L11.5800087,0.856 L10.0840087,16.122 L8.5880087,0.856 L6.2760087,0.856 L4.5080087,16.122 L3.2500087,0.856 L0.326008695,0.856 L2.9100087,23.5 L5.4940087,23.5 L7.1940087,9.934 L8.6900087,23.5 L11.3080087,23.5 L14.3000087,0.856 Z M19.7008248,23.5 L19.7008248,0.856 L16.7088248,0.856 L16.7088248,23.5 L19.7008248,23.5 Z M32.2076409,23.5 L32.2076409,0.856 L29.5556409,0.856 L29.5556409,15.136 L28.7056409,11.736 L25.8496409,0.856 L23.0616409,0.856 L23.0616409,23.5 L25.7476409,23.5 L25.7476409,9.288 L26.6656409,12.654 L29.8616409,23.5 L32.2076409,23.5 Z M43.218457,3.746 L43.218457,0.856 L34.718457,0.856 L34.718457,3.746 L37.540457,3.746 L37.540457,23.5 L40.498457,23.5 L40.498457,3.746 L43.218457,3.746 Z M53.0732731,23.5 L53.0732731,20.678 L48.7892731,20.678 L48.7892731,13.164 L51.7812731,13.164 L51.7812731,10.478 L48.7892731,10.478 L48.7892731,3.644 L53.0732731,3.644 L53.0732731,0.856 L45.8312731,0.856 L45.8312731,23.5 L53.0732731,23.5 Z M64.9000892,23.602 L64.9000892,22.752 C64.5600892,22.174 64.3900892,21.46 64.3900892,20.44 L64.3900892,15.408 C64.3900892,14.082 63.7440892,13.062 62.5880892,12.518 C63.7440892,11.974 64.3220892,10.988 64.3220892,9.628 L64.3220892,4.868 C64.3220892,1.91 62.5200892,0.856 60.5820892,0.856 L55.9920892,0.856 L55.9920892,23.5 L58.9840892,23.5 L58.9840892,13.81 L60.3100892,13.81 C61.0920892,13.81 61.5000892,14.422 61.5000892,15.204 L61.5000892,20.61 C61.5000892,22.242 61.9420892,23.602 63.0300892,23.602 L64.9000892,23.602 Z M61.3640892,9.832 C61.3640892,10.784 60.9900892,11.226 60.2760892,11.226 L58.9840892,11.226 L58.9840892,3.61 L60.4120892,3.61 C61.0580892,3.61 61.3640892,4.018 61.3640892,4.902 L61.3640892,9.832 Z" id="WINTER" fill="#DDE9EB" sketch:type="MSShapeGroup"></path>
                <path d="M83.6718436,23.5 L83.6718436,12.042 L76.1578436,12.042 L76.1578436,15.714 L77.8578436,15.714 L77.8578436,17.686 C77.8578436,18.434 77.2798436,19.046 76.2258436,19.046 C75.2398436,19.046 74.5938436,18.434 74.5938436,17.686 L74.5938436,6.602 C74.5938436,5.854 75.1378436,5.31 76.1578436,5.31 C77.1778436,5.31 77.6878436,5.854 77.6878436,6.602 L77.6878436,9.39 L83.5698436,9.39 L83.5698436,6.534 C83.5698436,3.474 80.6458436,0.312 76.0558436,0.312 C71.4318436,0.312 68.3378436,3.474 68.3378436,6.534 L68.3378436,17.822 C68.3378436,21.154 70.9218436,24.078 75.0698436,24.078 C76.9398436,24.078 78.7758436,23.058 79.6258436,21.29 L80.3058436,23.5 L83.6718436,23.5 Z M102.226143,23.5 L97.7381435,0.856 L90.6661435,0.856 L86.0761435,23.5 L91.6181435,23.5 L92.1281435,20.338 L95.7321435,20.338 L96.1401435,23.5 L102.226143,23.5 Z M95.1541435,16.156 L92.8421435,16.156 L94.1341435,8.506 L95.1541435,16.156 Z M125.574443,23.5 L125.574443,0.856 L117.618443,0.856 L115.850443,9.73 L115.238443,13.13 L114.660443,9.73 L112.824443,0.856 L104.834443,0.856 L104.834443,23.5 L110.274443,23.5 L110.274443,9.254 L111.294443,15.034 L112.994443,23.5 L116.734443,23.5 L118.570443,15.034 L119.692443,9.254 L119.692443,23.5 L125.574443,23.5 Z M142.258743,23.5 L142.258743,18.264 L135.390743,18.264 L135.390743,14.048 L139.844743,14.048 L139.844743,9.764 L135.390743,9.764 L135.390743,5.786 L142.258743,5.786 L142.258743,0.856 L129.304743,0.856 L129.304743,23.5 L142.258743,23.5 Z" id="GAME" fill="#9DCAD0" sketch:type="MSShapeGroup"></path>
            </g>
        </g>
    </g>
</svg>