<?xml version="1.0" encoding="UTF-8" standalone="no"?>
<svg width="15px" height="15px" viewBox="0 0 15 15" version="1.1" xmlns="http://www.w3.org/2000/svg" xmlns:xlink="http://www.w3.org/1999/xlink" xmlns:sketch="http://www.bohemiancoding.com/sketch/ns">
    <!-- Generator: Sketch 3.1.1 (8761) - http://www.bohemiancoding.com/sketch -->
    <title>icon-help-sm</title>
    <desc>Created with Sketch.</desc>
    <defs></defs>
    <g id="Page-1" stroke="none" stroke-width="1" fill="none" fill-rule="evenodd" sketch:type="MSPage">
        <g id="Desktop-4" sketch:type="MSArtboardGroup" transform="translate(-998.000000, -7.000000)" fill="#CFD6DB">
            <g id="icon-help-sm" sketch:type="MSLayerGroup" transform="translate(998.000000, 7.000000)">
                <path d="M13.7601936,10.567 L13.264174,11.433 C13.1271685,11.6725 12.8241565,11.754 12.5866471,11.616 L11.2090925,10.814 C10.5100648,11.6095 9.56452727,12.1795 8.49148472,12.3995 L8.49148472,13.5 C8.49148472,13.7765 8.26997593,14 7.99596507,14 L7.00392573,14 C6.72991487,14 6.50840608,13.7765 6.50840608,13.5 L6.50840608,12.3995 C5.43536353,12.1795 4.48982604,11.6095 3.79079832,10.814 L2.4132437,11.616 C2.17573428,11.754 1.87272227,11.6725 1.73571683,11.433 L1.23969716,10.567 C1.10269173,10.328 1.18419496,10.022 1.42120436,9.8845 L2.8042592,9.0785 C2.63975268,8.5815 2.54124877,8.053 2.54124877,7.5 C2.54124877,6.947 2.63975268,6.419 2.8042592,5.9215 L1.42120436,5.116 C1.18419496,4.978 1.10269173,4.6725 1.23969716,4.433 L1.73571683,3.567 C1.87272227,3.328 2.17573428,3.246 2.4132437,3.384 L3.79079832,4.186 C4.48982604,3.3905 5.43536353,2.8205 6.50840608,2.6005 L6.50840608,1.5 C6.50840608,1.2235 6.72991487,1 7.00392573,1 L7.99596507,1 C8.26997593,1 8.49148472,1.2235 8.49148472,1.5 L8.49148472,2.6005 C9.56452727,2.8205 10.5100648,3.3905 11.2090925,4.186 L12.5866471,3.384 C12.8241565,3.246 13.1271685,3.328 13.264174,3.567 L13.7601936,4.433 C13.8971991,4.6725 13.8156958,4.978 13.5786864,5.116 L12.1956316,5.9215 C12.3601381,6.419 12.458642,6.947 12.458642,7.5 C12.458642,8.053 12.3601381,8.5815 12.1956316,9.0785 L13.5786864,9.8845 C13.8156958,10.022 13.8971991,10.328 13.7601936,10.567 L13.7601936,10.567 Z M14.5042231,9.268 L13.3426771,8.592 C13.4076797,8.237 13.4506814,7.8745 13.4506814,7.5 C13.4506814,7.126 13.4076797,6.763 13.3426771,6.408 L14.5042231,5.732 C14.978742,5.456 15.1407484,4.844 14.8667375,4.366 L13.8751982,2.634 C13.6016874,2.156 12.9946633,1.9915 12.5206445,2.268 L11.3470979,2.9505 C10.7990762,2.4805 10.1760515,2.096 9.48352405,1.8485 L9.48352405,1 C9.48352405,0.448 9.03950645,0 8.49148472,0 L6.50840608,0 C5.96038435,0 5.51636675,0.448 5.51636675,1 L5.51636675,1.8485 C4.82383929,2.096 4.20081458,2.4805 3.65279285,2.9505 L2.47924632,2.268 C2.00522752,1.9915 1.39820345,2.156 1.1246926,2.634 L0.133153288,4.366 C-0.140857578,4.844 0.0216488661,5.456 0.495667662,5.732 L1.65721372,6.408 C1.59221114,6.763 1.54920944,7.126 1.54920944,7.5 C1.54920944,7.8745 1.59221114,8.237 1.65721372,8.592 L0.495667662,9.268 C0.0216488661,9.544 -0.140857578,10.156 0.133153288,10.634 L1.1246926,12.366 C1.39820345,12.844 2.00522752,13.0085 2.47924632,12.732 L3.65279285,12.0495 C4.20081458,12.5195 4.82383929,12.9045 5.51636675,13.1515 L5.51636675,14 C5.51636675,14.552 5.96038435,15 6.50840608,15 L8.49148472,15 C9.03950645,15 9.48352405,14.552 9.48352405,14 L9.48352405,13.1515 C10.1760515,12.9045 10.7990762,12.5195 11.3470979,12.0495 L12.5206445,12.732 C12.9946633,13.0085 13.6016874,12.844 13.8751982,12.366 L14.8667375,10.634 C15.1407484,10.156 14.978742,9.544 14.5042231,9.268 L14.5042231,9.268 Z M7.4999454,9 C6.67841282,9 6.01238641,8.3285 6.01238641,7.5 C6.01238641,6.672 6.67841282,6 7.4999454,6 C8.32147798,6 8.98750439,6.672 8.98750439,7.5 C8.98750439,8.3285 8.32147798,9 7.4999454,9 L7.4999454,9 Z M7.4999454,5 C6.13039109,5 5.0208471,6.119 5.0208471,7.5 C5.0208471,8.881 6.13039109,10 7.4999454,10 C8.86949971,10 9.97954372,8.881 9.97954372,7.5 C9.97954372,6.119 8.86949971,5 7.4999454,5 L7.4999454,5 Z" id="Fill-172" sketch:type="MSShapeGroup"></path>
            </g>
        </g>
    </g>
</svg>