<?xml version="1.0" encoding="UTF-8" standalone="no"?>
<svg width="49px" height="14px" viewBox="0 0 49 14" version="1.1" xmlns="http://www.w3.org/2000/svg" xmlns:xlink="http://www.w3.org/1999/xlink" xmlns:sketch="http://www.bohemiancoding.com/sketch/ns">
    <!-- Generator: Sketch 3.1.1 (8761) - http://www.bohemiancoding.com/sketch -->
    <title>DISTANCE</title>
    <desc>Created with Sketch.</desc>
    <defs></defs>
    <g id="Page-1" stroke="none" stroke-width="1" fill="none" fill-rule="evenodd" sketch:type="MSPage">
        <g id="outlines" sketch:type="MSArtboardGroup" transform="translate(-695.000000, -30.000000)" fill="#9DC9D0">
            <path d="M700.148,40.534 L700.148,33.514 C700.148,31.84 699.302,31.012 697.952,31.012 L695.576,31.012 L695.576,43 L697.952,43 C699.302,43 700.148,42.226 700.148,40.534 L700.148,40.534 Z M698.564,40.57 C698.564,41.218 698.366,41.524 697.862,41.524 L697.16,41.524 L697.16,32.506 L697.862,32.506 C698.366,32.506 698.564,32.812 698.564,33.46 L698.564,40.57 Z M704.061714,43 L704.061714,31.012 L702.477714,31.012 L702.477714,43 L704.061714,43 Z M710.819429,40.552 C710.819429,39.166 710.099429,37.816 709.181429,36.466 C708.281429,35.098 707.831429,34.468 707.831429,33.136 C707.831429,32.578 708.155429,32.272 708.605429,32.272 C709.073429,32.272 709.325429,32.632 709.325429,33.226 L709.325429,34.648 L710.747429,34.648 L710.747429,33.28 C710.747429,31.768 709.901429,30.832 708.605429,30.832 C707.039429,30.832 706.301429,31.984 706.301429,33.496 C706.301429,34.882 707.255429,36.502 708.029429,37.6 C708.857429,38.824 709.289429,39.724 709.289429,40.84 C709.289429,41.434 709.019429,41.794 708.461429,41.794 C707.939429,41.794 707.669429,41.416 707.669429,40.786 L707.669429,39.436 L706.229429,39.436 L706.229429,40.732 C706.229429,42.244 707.093429,43.18 708.515429,43.18 C709.667429,43.18 710.819429,42.442 710.819429,40.552 L710.819429,40.552 Z M717.037143,32.542 L717.037143,31.012 L712.537143,31.012 L712.537143,32.542 L714.031143,32.542 L714.031143,43 L715.597143,43 L715.597143,32.542 L717.037143,32.542 Z M723.470858,43 L721.868858,31.012 L720.140858,31.012 L718.538858,43 L719.978858,43 L720.248858,40.678 L721.634858,40.678 L721.850858,43 L723.470858,43 Z M721.472858,39.22 L720.428858,39.22 L721.004858,34.072 L721.472858,39.22 Z M730.210572,43 L730.210572,31.012 L728.806572,31.012 L728.806572,38.572 L728.356572,36.772 L726.844572,31.012 L725.368572,31.012 L725.368572,43 L726.790572,43 L726.790572,35.476 L727.276572,37.258 L728.968572,43 L730.210572,43 Z M737.004286,40.768 L737.004286,38.752 L735.636286,38.752 L735.636286,40.858 C735.636286,41.308 735.384286,41.65 734.862286,41.65 C734.340286,41.65 734.088286,41.308 734.088286,40.858 L734.088286,33.154 C734.088286,32.704 734.340286,32.362 734.862286,32.362 C735.384286,32.362 735.636286,32.704 735.636286,33.154 L735.636286,35.242 L737.004286,35.242 L737.004286,33.244 C737.004286,31.84 736.212286,30.832 734.826286,30.832 C733.476286,30.832 732.486286,31.876 732.486286,33.298 L732.486286,40.714 C732.486286,42.154 733.476286,43.18 734.826286,43.18 C736.212286,43.18 737.004286,42.19 737.004286,40.768 L737.004286,40.768 Z M743.060001,43 L743.060001,41.506 L740.792001,41.506 L740.792001,37.528 L742.376001,37.528 L742.376001,36.106 L740.792001,36.106 L740.792001,32.488 L743.060001,32.488 L743.060001,31.012 L739.226001,31.012 L739.226001,43 L743.060001,43 Z" id="DISTANCE" sketch:type="MSShapeGroup"></path>
        </g>
    </g>
</svg>