<?xml version="1.0" encoding="UTF-8" standalone="no"?>
<svg width="32px" height="14px" viewBox="0 0 32 14" version="1.1" xmlns="http://www.w3.org/2000/svg" xmlns:xlink="http://www.w3.org/1999/xlink" xmlns:sketch="http://www.bohemiancoding.com/sketch/ns">
    <!-- Generator: Sketch 3.1.1 (8761) - http://www.bohemiancoding.com/sketch -->
    <title>SCORE</title>
    <desc>Created with Sketch.</desc>
    <defs></defs>
    <g id="Page-1" stroke="none" stroke-width="1" fill="none" fill-rule="evenodd" sketch:type="MSPage">
        <g id="outlines" sketch:type="MSArtboardGroup" transform="translate(-793.000000, -30.000000)" fill="#9DC9D0">
            <path d="M797.896,40.552 C797.896,39.166 797.176,37.816 796.258,36.466 C795.358,35.098 794.908,34.468 794.908,33.136 C794.908,32.578 795.232,32.272 795.682,32.272 C796.15,32.272 796.402,32.632 796.402,33.226 L796.402,34.648 L797.824,34.648 L797.824,33.28 C797.824,31.768 796.978,30.832 795.682,30.832 C794.116,30.832 793.378,31.984 793.378,33.496 C793.378,34.882 794.332,36.502 795.106,37.6 C795.934,38.824 796.366,39.724 796.366,40.84 C796.366,41.434 796.096,41.794 795.538,41.794 C795.016,41.794 794.746,41.416 794.746,40.786 L794.746,39.436 L793.306,39.436 L793.306,40.732 C793.306,42.244 794.17,43.18 795.592,43.18 C796.744,43.18 797.896,42.442 797.896,40.552 L797.896,40.552 Z M804.455714,40.768 L804.455714,38.752 L803.087714,38.752 L803.087714,40.858 C803.087714,41.308 802.835714,41.65 802.313714,41.65 C801.791714,41.65 801.539714,41.308 801.539714,40.858 L801.539714,33.154 C801.539714,32.704 801.791714,32.362 802.313714,32.362 C802.835714,32.362 803.087714,32.704 803.087714,33.154 L803.087714,35.242 L804.455714,35.242 L804.455714,33.244 C804.455714,31.84 803.663714,30.832 802.277714,30.832 C800.927714,30.832 799.937714,31.876 799.937714,33.298 L799.937714,40.714 C799.937714,42.154 800.927714,43.18 802.277714,43.18 C803.663714,43.18 804.455714,42.19 804.455714,40.768 L804.455714,40.768 Z M811.213429,40.732 L811.213429,33.28 C811.213429,31.858 810.241429,30.832 808.891429,30.832 C807.541429,30.832 806.569429,31.858 806.569429,33.28 L806.569429,40.732 C806.569429,42.172 807.541429,43.18 808.891429,43.18 C810.241429,43.18 811.213429,42.172 811.213429,40.732 L811.213429,40.732 Z M809.629429,40.876 C809.629429,41.344 809.359429,41.65 808.891429,41.65 C808.423429,41.65 808.171429,41.344 808.171429,40.876 L808.171429,33.136 C808.171429,32.686 808.423429,32.362 808.891429,32.362 C809.359429,32.362 809.629429,32.686 809.629429,33.136 L809.629429,40.876 Z M818.277143,43.054 L818.277143,42.604 C818.097143,42.298 818.007143,41.92 818.007143,41.38 L818.007143,38.716 C818.007143,38.014 817.665143,37.474 817.053143,37.186 C817.665143,36.898 817.971143,36.376 817.971143,35.656 L817.971143,33.136 C817.971143,31.57 817.017143,31.012 815.991143,31.012 L813.561143,31.012 L813.561143,43 L815.145143,43 L815.145143,37.87 L815.847143,37.87 C816.261143,37.87 816.477143,38.194 816.477143,38.608 L816.477143,41.47 C816.477143,42.334 816.711143,43.054 817.287143,43.054 L818.277143,43.054 Z M816.405143,35.764 C816.405143,36.268 816.207143,36.502 815.829143,36.502 L815.145143,36.502 L815.145143,32.47 L815.901143,32.47 C816.243143,32.47 816.405143,32.686 816.405143,33.154 L816.405143,35.764 Z M824.170858,43 L824.170858,41.506 L821.902858,41.506 L821.902858,37.528 L823.486858,37.528 L823.486858,36.106 L821.902858,36.106 L821.902858,32.488 L824.170858,32.488 L824.170858,31.012 L820.336858,31.012 L820.336858,43 L824.170858,43 Z" id="SCORE" sketch:type="MSShapeGroup"></path>
        </g>
    </g>
</svg>